<?xml version="1.0" encoding="UTF-8"?>
<!DOCTYPE svg PUBLIC "-//W3C//DTD SVG 1.1//EN" "http://www.w3.org/Graphics/SVG/1.1/DTD/svg11.dtd">
<svg version="1.1" xmlns="http://www.w3.org/2000/svg" xmlns:xlink="http://www.w3.org/1999/xlink" x="0" y="0" width="800" height="800" viewBox="0, 0, 800, 800">
  <g id="Layer_2">
    <path d="M214.413,325.599 L214.413,108.533 L400.274,-0 L586.134,108.533 L586.134,325.599 L400.274,434.131 z" fill="#389826"/>
    <path d="M0,691.467 L0,474.401 L185.861,365.869 L371.722,474.401 L371.722,691.467 L185.861,800 z" fill="#CB3C33"/>
    <path d="M428.278,691.467 L428.278,474.401 L614.139,365.869 L800,474.401 L800,691.467 L614.139,800 z" fill="#9558B2"/>
  </g>
  <g id="Layer_3">
    <text transform="matrix(1, 0, 0, 1, 400.274, 217.066)">
      <tspan x="-88.712" y="80.5" font-family="AmericanTypewriter-Semibold" font-size="248" fill="#FFFFFF">A</tspan>
    </text>
    <text transform="matrix(1, 0, 0, 1, 492.263, 182.055)">
      <tspan x="-70.864" y="67.5" font-family="AmericanTypewriter-Semibold" font-size="208" fill="#FFFFFF">*</tspan>
    </text>
    <text transform="matrix(1, 0, 0, 1, 246.279, 570.976)">
      <tspan x="-111.943" y="107" font-family="AmericanTypewriter-Semibold" font-size="328" fill="#FFFFFF">ε</tspan>
    </text>
    <g>
      <text transform="matrix(1, 0, 0, 1, 631.379, 596.712)">
        <tspan x="-109.769" y="86" font-family="KohinoorDevanagari-Semibold" font-size="248" fill="#FFFFFF">क</tspan>
      </text>
    </g>
    <text transform="matrix(1, 0, 0, 1, 93.859, 596.712)">
      <tspan x="-54.188" y="82.5" font-family="AmericanTypewriter-Bold" font-size="248" fill="#FFFFFF">!</tspan>
    </text>
    <text transform="matrix(1, 0, 0, 1, 485.396, 567.63)">
      <tspan x="-27.9" y="82.5" font-family="AmericanTypewriter-Bold" font-size="248" fill="#FFFFFF">'</tspan>
    </text>
    <text transform="matrix(1, 0, 0, 1, 757.027, 567.63)">
      <tspan x="-27.9" y="82.5" font-family="AmericanTypewriter-Bold" font-size="248" fill="#FFFFFF">'</tspan>
    </text>
  </g>
</svg>
